<svg height="512" viewBox="0 0 512 512" width="512" xmlns="http://www.w3.org/2000/svg"><g id="Image-2" data-name="Image"><path d="m496 122v272h-32l-416-2v-270z" fill="#787680"/><path d="m16 154h448v272h-448z" fill="#78b9eb"/><path d="m464 370-80-96-104 104v46h184z" fill="#4e901e"/><circle cx="304" cy="234" fill="#ffda44" r="40"/><path d="m328 426-200-200-112 112v88z" fill="#91cc04"/><path d="m496 112h-448a8 8 0 0 0 -8 8v24h-24a8 8 0 0 0 -8 8v272a8 8 0 0 0 8 8h448a8 8 0 0 0 8-8v-24h24a8 8 0 0 0 8-8v-272a8 8 0 0 0 -8-8zm-40 48v185.9l-65.854-79.025a8 8 0 0 0 -11.8-.536l-98.346 98.347-146.343-146.343a8 8 0 0 0 -11.314 0l-98.343 98.343v-156.686zm-432 179.314 104-104 180.686 180.686h-284.686zm307.314 76.686-40-40 92.149-92.148 72.537 87.048v45.1zm156.686-32h-16v-232a8 8 0 0 0 -8-8h-408v-16h432z"/><path d="m304 280a48 48 0 1 0 -48-48 48.053 48.053 0 0 0 48 48zm0-80a32 32 0 1 1 -32 32 32.036 32.036 0 0 1 32-32z"/><path d="m96 384h-48a8 8 0 0 0 0 16h48a8 8 0 0 0 0-16z"/><path d="m128 384h-8a8 8 0 0 0 0 16h8a8 8 0 0 0 0-16z"/></g></svg>