<svg height="496pt" viewBox="0 -52 496 496" width="496pt" xmlns="http://www.w3.org/2000/svg"><path d="m8 8h480v224h-480zm0 0" fill="#e0e0e2"/><path d="m168 168h160v32h-160zm0 0" fill="#fbb040"/><path d="m40 40h32v32h-32zm0 0" fill="#fbb040"/><path d="m40 104h32v32h-32zm0 0" fill="#fbb040"/><path d="m40 40h32v32h-32zm0 0" fill="#fbb040"/><path d="m40 104h32v32h-32zm0 0" fill="#fbb040"/><path d="m104 40h32v32h-32zm0 0" fill="#fbb040"/><path d="m104 104h32v32h-32zm0 0" fill="#fbb040"/><path d="m104 40h32v32h-32zm0 0" fill="#fbb040"/><path d="m104 104h32v32h-32zm0 0" fill="#fbb040"/><path d="m168 40h32v32h-32zm0 0" fill="#fbb040"/><path d="m168 104h32v32h-32zm0 0" fill="#fbb040"/><path d="m168 40h32v32h-32zm0 0" fill="#fbb040"/><path d="m168 104h32v32h-32zm0 0" fill="#fbb040"/><path d="m232 40h32v32h-32zm0 0" fill="#fbb040"/><path d="m232 104h32v32h-32zm0 0" fill="#fbb040"/><path d="m232 40h32v32h-32zm0 0" fill="#cca400"/><path d="m232 104h32v32h-32zm0 0" fill="#fbb040"/><path d="m296 40h32v32h-32zm0 0" fill="#fbb040"/><path d="m296 104h32v32h-32zm0 0" fill="#fbb040"/><path d="m296 40h32v32h-32zm0 0" fill="#fbb040"/><path d="m296 104h32v32h-32zm0 0" fill="#cca400"/><path d="m360 40h32v32h-32zm0 0" fill="#fbb040"/><path d="m360 104h32v32h-32zm0 0" fill="#fbb040"/><path d="m360 40h32v32h-32zm0 0" fill="#fbb040"/><path d="m360 104h32v32h-32zm0 0" fill="#fbb040"/><path d="m424 40h32v32h-32zm0 0" fill="#fbb040"/><path d="m424 104h32v32h-32zm0 0" fill="#fbb040"/><path d="m424 40h32v32h-32zm0 0" fill="#cca400"/><path d="m424 104h32v32h-32zm0 0" fill="#fbb040"/><path d="m136 224h-8v-44c0-6.628906-5.371094-12-12-12s-12 5.371094-12 12v44h-56c-8.835938 0-16 7.164062-16 16v48c0 8.835938 7.164062 16 16 16 4.417969 0 8 3.582031 8 8v32h72v-32c0-4.417969 3.582031-8 8-8 8.835938 0 16-7.164062 16-16v-48c0-8.835938-7.164062-16-16-16zm0 0" fill="#ffeb99"/><path d="m40 344h104v40h-104zm0 0" fill="#cca400"/><g fill="#231f20"><path d="m488 0h-480c-4.417969 0-8 3.582031-8 8v224c0 4.417969 3.582031 8 8 8h16v48c0 13.253906 10.746094 24 24 24v24h-8c-4.417969 0-8 3.582031-8 8v40c0 4.417969 3.582031 8 8 8h104c4.417969 0 8-3.582031 8-8v-40c0-4.417969-3.582031-8-8-8h-8v-24c13.226562-.066406 23.933594-10.773438 24-24v-48h328c4.417969 0 8-3.582031 8-8v-224c0-4.417969-3.582031-8-8-8zm-352 376h-88v-24h88zm8-88c.003906 2.15625-.878906 4.222656-2.449219 5.703125-1.464843 1.484375-3.464843 2.3125-5.550781 2.296875-8.835938 0-16 7.164062-16 16v24h-56v-24c0-8.835938-7.164062-16-16-16-4.417969 0-8-3.582031-8-8v-48c0-1.386719.367188-2.75 1.0625-3.953125 1.417969-2.496094 4.066406-4.039063 6.9375-4.046875h56c4.417969 0 8-3.582031 8-8v-44c0-2.210938 1.789062-4 4-4s4 1.789062 4 4v44c0 4.417969 3.582031 8 8 8h8c2.859375 0 5.5 1.523438 6.929688 4 .707031 1.214844 1.078124 2.59375 1.070312 4zm336-64h-326.121094c-4.53125-5.117188-11.046875-8.03125-17.878906-8v-36c0-11.046875-8.953125-20-20-20s-20 8.953125-20 20v36h-48c-6.832031-.03125-13.347656 2.882812-17.878906 8h-14.121094v-208h464zm0 0"/><path d="m168 208h160c4.417969 0 8-3.582031 8-8v-32c0-4.417969-3.582031-8-8-8h-160c-4.417969 0-8 3.582031-8 8v32c0 4.417969 3.582031 8 8 8zm8-32h144v16h-144zm0 0"/><path d="m40 80h32c4.417969 0 8-3.582031 8-8v-32c0-4.417969-3.582031-8-8-8h-32c-4.417969 0-8 3.582031-8 8v32c0 4.417969 3.582031 8 8 8zm8-32h16v16h-16zm0 0"/><path d="m40 144h32c4.417969 0 8-3.582031 8-8v-32c0-4.417969-3.582031-8-8-8h-32c-4.417969 0-8 3.582031-8 8v32c0 4.417969 3.582031 8 8 8zm8-32h16v16h-16zm0 0"/><path d="m104 80h32c4.417969 0 8-3.582031 8-8v-32c0-4.417969-3.582031-8-8-8h-32c-4.417969 0-8 3.582031-8 8v32c0 4.417969 3.582031 8 8 8zm8-32h16v16h-16zm0 0"/><path d="m104 144h32c4.417969 0 8-3.582031 8-8v-32c0-4.417969-3.582031-8-8-8h-32c-4.417969 0-8 3.582031-8 8v32c0 4.417969 3.582031 8 8 8zm8-32h16v16h-16zm0 0"/><path d="m168 80h32c4.417969 0 8-3.582031 8-8v-32c0-4.417969-3.582031-8-8-8h-32c-4.417969 0-8 3.582031-8 8v32c0 4.417969 3.582031 8 8 8zm8-32h16v16h-16zm0 0"/><path d="m168 144h32c4.417969 0 8-3.582031 8-8v-32c0-4.417969-3.582031-8-8-8h-32c-4.417969 0-8 3.582031-8 8v32c0 4.417969 3.582031 8 8 8zm8-32h16v16h-16zm0 0"/><path d="m232 80h32c4.417969 0 8-3.582031 8-8v-32c0-4.417969-3.582031-8-8-8h-32c-4.417969 0-8 3.582031-8 8v32c0 4.417969 3.582031 8 8 8zm8-32h16v16h-16zm0 0"/><path d="m232 144h32c4.417969 0 8-3.582031 8-8v-32c0-4.417969-3.582031-8-8-8h-32c-4.417969 0-8 3.582031-8 8v32c0 4.417969 3.582031 8 8 8zm8-32h16v16h-16zm0 0"/><path d="m296 80h32c4.417969 0 8-3.582031 8-8v-32c0-4.417969-3.582031-8-8-8h-32c-4.417969 0-8 3.582031-8 8v32c0 4.417969 3.582031 8 8 8zm8-32h16v16h-16zm0 0"/><path d="m296 144h32c4.417969 0 8-3.582031 8-8v-32c0-4.417969-3.582031-8-8-8h-32c-4.417969 0-8 3.582031-8 8v32c0 4.417969 3.582031 8 8 8zm8-32h16v16h-16zm0 0"/><path d="m360 80h32c4.417969 0 8-3.582031 8-8v-32c0-4.417969-3.582031-8-8-8h-32c-4.417969 0-8 3.582031-8 8v32c0 4.417969 3.582031 8 8 8zm8-32h16v16h-16zm0 0"/><path d="m360 144h32c4.417969 0 8-3.582031 8-8v-32c0-4.417969-3.582031-8-8-8h-32c-4.417969 0-8 3.582031-8 8v32c0 4.417969 3.582031 8 8 8zm8-32h16v16h-16zm0 0"/><path d="m424 80h32c4.417969 0 8-3.582031 8-8v-32c0-4.417969-3.582031-8-8-8h-32c-4.417969 0-8 3.582031-8 8v32c0 4.417969 3.582031 8 8 8zm8-32h16v16h-16zm0 0"/><path d="m424 144h32c4.417969 0 8-3.582031 8-8v-32c0-4.417969-3.582031-8-8-8h-32c-4.417969 0-8 3.582031-8 8v32c0 4.417969 3.582031 8 8 8zm8-32h16v16h-16zm0 0"/><path d="m352 192h80c4.417969 0 8-3.582031 8-8s-3.582031-8-8-8h-80c-4.417969 0-8 3.582031-8 8s3.582031 8 8 8zm0 0"/><path d="m456 176c-4.417969 0-8 3.582031-8 8s3.582031 8 8 8h8c4.417969 0 8-3.582031 8-8s-3.582031-8-8-8zm0 0"/></g></svg>